<svg width="1542" height="367" viewBox="0 0 1542 367" fill="none" xmlns="http://www.w3.org/2000/svg">
<rect x="213.021" y="-1.45422" width="259.046" height="259.046" rx="16" transform="rotate(45 213.021 -1.45422)" fill="#1A1B5B"/>
<path d="M199.39 12.1569C199.434 12.1125 199.475 12.0653 199.513 12.0154C200.082 11.2689 204.941 5.18857 212.22 5.18852L212.499 100.236C212.512 104.566 210.764 108.722 207.663 111.745C188.903 130.031 176.491 142.129 157.92 160.232C154.769 163.303 154.685 168.348 157.737 171.517L184.596 199.395C187.683 202.6 192.793 202.669 195.966 199.549L228.063 167.986C231.243 164.857 236.368 164.936 239.452 168.159L266.348 196.272C269.357 199.417 269.299 204.391 266.217 207.466L214.869 258.69C213.365 260.191 212.519 262.229 212.519 264.354V358.187C205.32 358.187 199.972 352.229 199.53 351.721C199.507 351.696 199.488 351.675 199.464 351.651L40.6985 193.52C34.4287 187.275 34.4186 177.127 40.6758 170.87L199.39 12.1569Z" fill="#8F87F7"/>
<path d="M1461.67 312.78C1442.46 312.78 1425.36 308.918 1410.35 301.192C1395.33 293.245 1383.53 282.319 1374.92 268.412C1366.53 254.505 1362.33 238.723 1362.33 221.064C1362.33 203.184 1366.53 187.401 1374.92 173.715C1383.53 159.809 1395.33 148.992 1410.35 141.266C1425.36 133.32 1442.46 129.347 1461.67 129.347C1480.43 129.347 1496.76 133.32 1510.67 141.266C1523.27 148.267 1532.88 158.076 1539.5 170.694C1540.67 172.921 1539.74 175.633 1537.53 176.823L1505.56 193.997C1503.25 195.235 1500.4 194.374 1498.96 192.19C1494.76 185.828 1489.73 180.994 1483.85 177.688C1477.01 173.715 1469.5 171.728 1461.34 171.728C1452.51 171.728 1444.56 173.715 1437.5 177.688C1430.43 181.662 1424.8 187.291 1420.61 194.575C1416.64 201.859 1414.65 210.689 1414.65 221.064C1414.65 231.438 1416.64 240.268 1420.61 247.552C1424.8 254.837 1430.43 260.465 1437.5 264.439C1444.56 268.412 1452.51 270.399 1461.34 270.399C1469.5 270.399 1477.01 268.522 1483.85 264.77C1489.73 261.463 1494.77 256.551 1498.96 250.034C1500.4 247.808 1503.29 246.928 1505.62 248.196L1537.54 265.611C1539.75 266.815 1540.66 269.532 1539.48 271.75C1532.86 284.186 1523.26 294 1510.67 301.192C1496.76 308.918 1480.43 312.78 1461.67 312.78Z" fill="#1A1B5B"/>
<path d="M1278.48 310.139C1275.84 310.139 1273.7 308.001 1273.7 305.363V136.779C1273.7 134.141 1275.84 132.003 1278.48 132.003H1320.58C1323.22 132.003 1325.36 134.141 1325.36 136.779V305.363C1325.36 308.001 1323.22 310.139 1320.58 310.139H1278.48ZM1299.53 107.17C1290.04 107.17 1282.31 104.411 1276.35 98.8922C1270.39 93.3737 1267.41 86.5308 1267.41 78.3635C1267.41 70.1961 1270.39 63.3532 1276.35 57.8348C1282.31 52.3163 1290.04 49.5571 1299.53 49.5571C1309.02 49.5571 1316.75 52.2059 1322.71 57.5037C1328.67 62.5807 1331.65 69.2028 1331.65 77.3702C1331.65 85.979 1328.67 93.153 1322.71 98.8922C1316.97 104.411 1309.24 107.17 1299.53 107.17Z" fill="#1A1B5B"/>
<path d="M1130.7 310.132C1128.06 310.132 1125.93 307.993 1125.93 305.356V136.771C1125.93 134.134 1128.06 131.995 1130.7 131.995H1170.49C1173.12 131.995 1175.26 134.134 1175.26 136.771V171.777C1175.26 174.32 1171.81 175.101 1170.72 172.805L1168.77 168.723C1168.48 168.107 1168.46 167.394 1168.73 166.77C1174.05 154.677 1182.41 145.513 1193.8 139.28C1204.94 132.974 1218.38 129.671 1234.13 129.369C1235.45 129.344 1236.52 130.416 1236.52 131.735V174.388C1236.52 175.8 1235.3 176.899 1233.89 176.809C1232.7 176.733 1231.59 176.695 1230.56 176.695C1228.79 176.474 1226.91 176.364 1224.93 176.364C1210.8 176.364 1199.32 180.448 1190.49 188.615C1181.88 196.562 1177.58 209.033 1177.58 226.03V305.356C1177.58 307.993 1175.44 310.132 1172.8 310.132H1130.7Z" fill="#1A1B5B"/>
<path d="M1004.96 312.775C989.286 312.775 975.821 309.464 964.563 302.841C953.305 296.219 944.696 286.176 938.737 272.711C932.777 259.025 929.797 241.807 929.797 221.058C929.797 200.088 932.887 182.87 939.068 169.405C945.469 155.94 954.299 145.896 965.556 139.274C976.814 132.652 989.948 129.341 1004.96 129.341C1021.73 129.341 1036.74 133.093 1049.99 140.598C1063.45 148.104 1074.05 158.699 1081.78 172.385C1089.72 186.071 1093.7 202.295 1093.7 221.058C1093.7 239.6 1089.72 255.714 1081.78 269.399C1074.05 283.085 1063.45 293.791 1049.99 301.517C1036.74 309.022 1021.73 312.775 1004.96 312.775ZM904.442 310.126C901.804 310.126 899.666 307.988 899.666 305.35V69.2195C899.666 66.5819 901.804 64.4436 904.442 64.4436H946.543C949.18 64.4436 951.319 66.5819 951.319 69.2195V168.08L948.008 220.727L949.001 273.704V305.35C949.001 307.988 946.863 310.126 944.225 310.126H904.442ZM996.018 270.393C1004.63 270.393 1012.24 268.406 1018.86 264.433C1025.71 260.46 1031.12 254.831 1035.09 247.546C1039.28 240.041 1041.38 231.212 1041.38 221.058C1041.38 210.683 1039.28 201.853 1035.09 194.569C1031.12 187.285 1025.71 181.656 1018.86 177.683C1012.24 173.709 1004.63 171.723 996.018 171.723C987.409 171.723 979.684 173.709 972.841 177.683C965.998 181.656 960.59 187.285 956.616 194.569C952.643 201.853 950.656 210.683 950.656 221.058C950.656 231.212 952.643 240.041 956.616 247.546C960.59 254.831 965.998 260.46 972.841 264.433C979.684 268.406 987.409 270.393 996.018 270.393Z" fill="#1A1B5B"/>
<path d="M816.349 310.132C813.712 310.132 811.573 307.993 811.573 305.356V275.862C811.573 275.534 811.506 275.21 811.375 274.91L808.46 268.205C808.33 267.905 808.262 267.581 808.262 267.253V205.501C808.262 194.465 804.841 185.856 797.998 179.675C791.376 173.494 781.111 170.404 767.205 170.404C757.713 170.404 748.332 171.949 739.061 175.04C732.133 177.236 725.982 180.079 720.607 183.569C718.081 185.208 714.601 184.464 713.225 181.785L699.239 154.563C698.151 152.445 698.782 149.837 700.791 148.556C709.786 142.821 720.336 138.294 732.439 134.975C746.124 131.223 760.031 129.347 774.158 129.347C801.309 129.347 822.39 135.748 837.4 148.551C852.41 161.354 859.915 181.331 859.915 208.481V305.356C859.915 307.993 857.777 310.132 855.139 310.132H816.349ZM757.272 312.78C743.365 312.78 731.445 310.463 721.512 305.827C711.579 300.971 703.963 294.459 698.666 286.292C693.368 278.125 690.719 268.964 690.719 258.81C690.719 248.214 693.257 238.943 698.334 230.997C703.632 223.05 711.91 216.87 723.168 212.455C734.425 207.819 749.104 205.501 767.205 205.501H812.165C813.484 205.501 814.553 206.571 814.553 207.889V233.244C814.553 234.563 813.484 235.632 812.165 235.632H772.834C760.693 235.632 752.305 237.619 747.67 241.592C743.255 245.566 741.047 250.532 741.047 256.492C741.047 263.114 743.586 268.412 748.663 272.385C753.961 276.138 761.135 278.014 770.185 278.014C778.794 278.014 786.52 276.027 793.362 272.054C798.381 268.978 802.391 264.893 805.391 259.798C806.526 257.871 809.648 258 810.355 260.121L815.96 276.935C816.122 277.421 816.124 277.947 815.958 278.432C812.156 289.541 805.396 298.011 795.68 303.841C785.747 309.8 772.944 312.78 757.272 312.78Z" fill="#1A1B5B"/>
<path d="M551.138 174.029C551.138 172.71 552.208 171.641 553.526 171.641H651.645C654.283 171.641 656.421 173.779 656.421 176.417V209.909C656.421 212.546 654.283 214.685 651.645 214.685H553.526C552.207 214.685 551.138 213.616 551.138 212.297V174.029ZM555.112 294.341C555.112 296.979 552.973 299.117 550.336 299.117H506.248C503.61 299.117 501.472 296.979 501.472 294.341V72.1176C501.472 69.4799 503.61 67.3416 506.248 67.3416H589.05H671.852C674.49 67.3416 676.628 69.4799 676.628 72.1176V105.953C676.628 108.59 674.49 110.729 671.852 110.729H557.5C556.181 110.729 555.112 111.798 555.112 113.117V294.341Z" fill="#1A1B5B"/>
</svg>
