<svg width="809" height="527" viewBox="0 0 809 527" fill="none" xmlns="http://www.w3.org/2000/svg">
<g filter="url(#filter0_d_21_433)">
<g clip-path="url(#clip0_21_433)">
<rect x="7" y="6.22473" width="655.217" height="461.485" rx="12.0795" fill="#11113B"/>
<rect x="7.00023" y="44.8791" width="748.929" height="387.752" fill="#1A1B5B"/>
<ellipse cx="33.6021" cy="26.1761" rx="7.51793" ry="7.22878" fill="#ED6A5E"/>
<ellipse cx="56.734" cy="26.1761" rx="7.51793" ry="7.22878" fill="#F4BF4F"/>
<circle cx="80.1554" cy="26.1761" r="7.22878" fill="#61C554"/>
<g clip-path="url(#clip1_21_433)">
<rect width="527.99" height="69.3963" transform="translate(37.6503 221.931)" fill="#F6F6F9" fill-opacity="0.4"/>
<rect x="49.216" y="236.967" width="52.0472" height="8.09624" fill="#AFD440"/>
<rect x="49.216" y="253.16" width="97.1548" height="8.09624" fill="#F6F6F9"/>
<rect x="49.216" y="268.196" width="352.765" height="8.09624" fill="#F6F6F9"/>
<rect width="527.99" height="104.094" transform="translate(37.6503 310.99)" fill="#212171"/>
<rect x="49.216" y="326.026" width="52.0472" height="8.09624" fill="#AFD440"/>
<rect x="49.216" y="342.218" width="459.172" height="8.09624" fill="#7C74F1"/>
<rect x="49.216" y="357.254" width="205.876" height="8.09624" fill="#7C74F1"/>
<rect x="49.216" y="372.29" width="380.523" height="8.09624" fill="#7C74F1"/>
<rect x="49.216" y="388.483" width="311.127" height="8.09624" fill="#7C74F1"/>
<rect width="527.99" height="95.9982" transform="translate(37.6503 106.271)" fill="#A5A6F6" fill-opacity="0.4"/>
<rect x="49.216" y="118.994" width="52.0472" height="8.09624" fill="#AFD440"/>
<rect x="49.216" y="135.186" width="161.346" height="8.09624" fill="#A5A6F6"/>
<rect x="49.216" y="150.222" width="260.236" height="8.09624" fill="#A5A6F6"/>
<rect x="49.216" y="165.258" width="329.632" height="8.09624" fill="#A5A6F6"/>
<rect x="49.216" y="181.45" width="157.298" height="8.09624" fill="#A5A6F6"/>
</g>
<path d="M51.6807 95.2831C49.4031 95.2831 47.7304 94.9079 46.6628 94.1575C45.5952 93.407 45.0614 92.0635 45.0614 90.1268C45.0614 89.2553 45.0851 88.5049 45.1325 87.8755C45.2037 87.2219 45.263 86.5925 45.3105 85.9873C45.3817 85.3821 45.4172 84.6921 45.4172 83.9175C45.4172 83.4817 45.2749 83.0702 44.9902 82.6829C44.7055 82.2713 44.2073 81.9324 43.4955 81.6661C42.8075 81.3998 41.8229 81.2546 40.5417 81.2304V78.1076C41.8229 78.0834 42.8075 77.9381 43.4955 77.6718C44.2073 77.4055 44.7055 77.0787 44.9902 76.6914C45.2749 76.2799 45.4172 75.8562 45.4172 75.4205C45.4172 74.67 45.3817 73.9922 45.3105 73.387C45.263 72.7576 45.2037 72.1161 45.1325 71.4625C45.0851 70.8088 45.0614 70.0584 45.0614 69.2111C45.0614 67.2503 45.5952 65.9067 46.6628 65.1805C47.7304 64.43 49.4031 64.0548 51.6807 64.0548H54.421V66.8871H52.9619C51.9891 66.8871 51.2418 66.9598 50.7198 67.105C50.1979 67.2503 49.8301 67.5045 49.6166 67.8676C49.4268 68.2307 49.3319 68.7512 49.3319 69.429C49.3319 70.3973 49.3556 71.3535 49.4031 72.2976C49.4743 73.2417 49.5098 74.2585 49.5098 75.3478C49.5098 76.7277 49.237 77.7323 48.6913 78.3617C48.1456 78.9669 47.2322 79.3785 45.9511 79.5964V79.7416C47.2322 79.9595 48.1456 80.3831 48.6913 81.0125C49.237 81.6177 49.5098 82.6103 49.5098 83.9901C49.5098 85.0795 49.4743 86.0962 49.4031 87.0403C49.3556 87.9844 49.3319 88.9406 49.3319 89.909C49.3319 90.5868 49.4268 91.1073 49.6166 91.4704C49.8301 91.8335 50.1979 92.0877 50.7198 92.2329C51.2418 92.3782 51.9891 92.4508 52.9619 92.4508H54.421V95.2831H51.6807Z" fill="#AFD440"/>
<path d="M67.5707 64.0549C69.8483 64.0549 71.5209 64.4301 72.5885 65.1805C73.6562 65.931 74.19 67.2745 74.19 69.2112C74.19 70.0827 74.1663 70.8331 74.1188 71.4625C74.0476 72.1161 73.9883 72.7455 73.9409 73.3507C73.8697 73.9559 73.8341 74.6459 73.8341 75.4205C73.8341 75.8563 73.9765 76.2678 74.2612 76.6551C74.5459 77.0667 75.0441 77.4056 75.7559 77.6719C76.4439 77.9382 77.4285 78.0834 78.7097 78.1076L78.7097 81.2305C77.4285 81.2547 76.4439 81.3999 75.7559 81.6662C75.0441 81.9325 74.5459 82.2593 74.2612 82.6466C73.9765 83.0582 73.8341 83.4818 73.8341 83.9175C73.8341 84.668 73.8697 85.3458 73.9409 85.951C73.9883 86.5804 74.0476 87.2219 74.1188 87.8756C74.1663 88.5292 74.19 89.2796 74.19 90.1269C74.19 92.0877 73.6562 93.4313 72.5885 94.1575C71.5209 94.908 69.8483 95.2832 67.5707 95.2832L64.8304 95.2832L64.8304 92.4509L66.2895 92.4509C67.2622 92.4509 68.0096 92.3782 68.5315 92.233C69.0535 92.0877 69.4212 91.8336 69.6348 91.4704C69.8246 91.1073 69.9195 90.5868 69.9195 89.909C69.9195 88.9407 69.8957 87.9845 69.8483 87.0404C69.7771 86.0963 69.7415 85.0795 69.7415 83.9902C69.7415 82.6103 70.0144 81.6057 70.56 80.9763C71.1057 80.3711 72.0191 79.9595 73.3003 79.7417L73.3003 79.5964C72.0191 79.3785 71.1057 78.9549 70.56 78.3255C70.0144 77.7203 69.7415 76.7278 69.7415 75.3479C69.7415 74.2585 69.7771 73.2418 69.8483 72.2977C69.8957 71.3536 69.9195 70.3974 69.9195 69.429C69.9195 68.7512 69.8246 68.2307 69.6348 67.8676C69.4212 67.5045 69.0535 67.2503 68.5315 67.1051C68.0096 66.9598 67.2622 66.8872 66.2895 66.8872L64.8304 66.8872L64.8304 64.0549L67.5707 64.0549Z" fill="#AFD440"/>
</g>
<rect x="7.60397" y="6.82871" width="654.009" height="460.278" rx="11.4755" stroke="#212171" stroke-width="1.20795"/>
</g>
<g filter="url(#filter1_d_21_433)">
<rect x="430.054" y="60.9122" width="376.221" height="460.536" rx="2.32594" fill="white" shape-rendering="crispEdges"/>
<rect x="430.054" y="60.9122" width="376.221" height="460.536" fill="#F9FAFA"/>
<line y1="-0.290743" x2="134.277" y2="-0.290743" transform="matrix(0.993162 0.116743 -0.127811 0.991799 480.708 230.952)" stroke="#C7C7C7" stroke-width="0.581485"/>
<line y1="-0.290743" x2="84.7323" y2="-0.290743" transform="matrix(0.79905 -0.601265 0.63636 0.771393 507.381 266.23)" stroke="#C7C7C7" stroke-width="0.581485"/>
<line y1="-0.290743" x2="58.8202" y2="-0.290743" transform="matrix(0.0348805 -0.999391 0.999494 0.0318194 573.032 274.053)" stroke="#C7C7C7" stroke-width="0.581485"/>
<line y1="-0.290743" x2="101.894" y2="-0.290743" transform="matrix(-0.906095 -0.423074 0.455662 -0.890153 573.032 274.053)" stroke="#C7C7C7" stroke-width="0.581485"/>
<ellipse cx="480.709" cy="230.966" rx="8.20671" ry="7.83793" fill="#5948C1"/>
<ellipse cx="507.38" cy="266.24" rx="8.20671" ry="7.83793" fill="#AFD440"/>
<ellipse cx="573.035" cy="215.284" rx="8.20671" ry="7.83793" fill="#A5A6F6"/>
<ellipse cx="573.035" cy="274.067" rx="8.20671" ry="7.83793" fill="#E0E0EB"/>
<ellipse cx="622.274" cy="246.644" rx="8.20671" ry="7.83793" fill="#AFD440"/>
<rect x="453.313" y="78.3567" width="92.4561" height="8.14079" fill="#D9D9D9"/>
<rect x="453.313" y="93.4755" width="327.376" height="6.39634" fill="#D9D9D9"/>
<rect x="453.313" y="442.366" width="327.376" height="6.39634" fill="#D9D9D9"/>
<rect x="453.313" y="106.849" width="327.376" height="6.39634" fill="#D9D9D9"/>
<rect x="453.313" y="455.74" width="327.376" height="6.39634" fill="#D9D9D9"/>
<rect x="453.313" y="120.224" width="327.376" height="6.39634" fill="#D9D9D9"/>
<rect x="453.313" y="469.114" width="327.376" height="6.39634" fill="#D9D9D9"/>
<rect x="453.313" y="143.483" width="188.401" height="6.39634" fill="#D9D9D9"/>
<rect x="453.313" y="156.857" width="327.376" height="6.39634" fill="#D9D9D9"/>
<rect x="453.313" y="319.091" width="327.376" height="6.39634" fill="#D9D9D9"/>
<rect x="453.313" y="380.729" width="103.504" height="6.39634" fill="#D9D9D9"/>
<rect x="565.54" y="380.729" width="102.923" height="6.39634" fill="#D9D9D9"/>
<rect x="677.185" y="380.729" width="103.504" height="6.39634" fill="#D9D9D9"/>
<rect x="453.313" y="345.84" width="327.376" height="6.39634" fill="#D9D9D9"/>
<rect x="565.54" y="407.477" width="102.923" height="6.39634" fill="#D9D9D9"/>
<rect x="453.313" y="407.477" width="103.504" height="6.39634" fill="#D9D9D9"/>
<rect x="677.185" y="407.477" width="103.504" height="6.39634" fill="#D9D9D9"/>
<rect x="675.44" y="198.142" width="105.249" height="6.39634" fill="#D9D9D9"/>
<rect x="675.44" y="224.891" width="105.249" height="6.39634" fill="#D9D9D9"/>
<rect x="675.44" y="251.639" width="105.249" height="6.39634" fill="#D9D9D9"/>
<rect x="675.44" y="278.388" width="105.249" height="6.39634" fill="#D9D9D9"/>
<rect x="453.313" y="170.231" width="327.376" height="6.39634" fill="#D9D9D9"/>
<rect x="565.54" y="394.103" width="102.923" height="6.39634" fill="#D9D9D9"/>
<rect x="453.313" y="332.466" width="327.376" height="6.39634" fill="#D9D9D9"/>
<rect x="453.313" y="394.103" width="103.504" height="6.39634" fill="#D9D9D9"/>
<rect x="565.54" y="420.851" width="102.923" height="6.39634" fill="#D9D9D9"/>
<rect x="677.185" y="394.103" width="103.504" height="6.39634" fill="#D9D9D9"/>
<rect x="453.313" y="359.214" width="327.376" height="6.39634" fill="#D9D9D9"/>
<rect x="453.313" y="420.851" width="103.504" height="6.39634" fill="#D9D9D9"/>
<rect x="677.185" y="420.851" width="103.504" height="6.39634" fill="#D9D9D9"/>
<rect x="675.44" y="211.517" width="105.249" height="6.39634" fill="#D9D9D9"/>
<rect x="675.44" y="238.265" width="105.249" height="6.39634" fill="#D9D9D9"/>
<rect x="675.44" y="265.013" width="105.249" height="6.39634" fill="#D9D9D9"/>
<rect x="675.44" y="291.762" width="105.249" height="6.39634" fill="#D9D9D9"/>
</g>
<defs>
<filter id="filter0_d_21_433" x="0.960251" y="0.184982" width="667.296" height="473.565" filterUnits="userSpaceOnUse" color-interpolation-filters="sRGB">
<feFlood flood-opacity="0" result="BackgroundImageFix"/>
<feColorMatrix in="SourceAlpha" type="matrix" values="0 0 0 0 0 0 0 0 0 0 0 0 0 0 0 0 0 0 127 0" result="hardAlpha"/>
<feOffset/>
<feGaussianBlur stdDeviation="3.01987"/>
<feComposite in2="hardAlpha" operator="out"/>
<feColorMatrix type="matrix" values="0 0 0 0 0.745833 0 0 0 0 0.745833 0 0 0 0 0.745833 0 0 0 0.2 0"/>
<feBlend mode="normal" in2="BackgroundImageFix" result="effect1_dropShadow_21_433"/>
<feBlend mode="normal" in="SourceGraphic" in2="effect1_dropShadow_21_433" result="shape"/>
</filter>
<filter id="filter1_d_21_433" x="427.728" y="60.9122" width="380.873" height="465.188" filterUnits="userSpaceOnUse" color-interpolation-filters="sRGB">
<feFlood flood-opacity="0" result="BackgroundImageFix"/>
<feColorMatrix in="SourceAlpha" type="matrix" values="0 0 0 0 0 0 0 0 0 0 0 0 0 0 0 0 0 0 127 0" result="hardAlpha"/>
<feOffset dy="2.32594"/>
<feGaussianBlur stdDeviation="1.16297"/>
<feComposite in2="hardAlpha" operator="out"/>
<feColorMatrix type="matrix" values="0 0 0 0 0 0 0 0 0 0 0 0 0 0 0 0 0 0 0.25 0"/>
<feBlend mode="normal" in2="BackgroundImageFix" result="effect1_dropShadow_21_433"/>
<feBlend mode="normal" in="SourceGraphic" in2="effect1_dropShadow_21_433" result="shape"/>
</filter>
<clipPath id="clip0_21_433">
<rect x="7" y="6.22473" width="655.217" height="461.485" rx="12.0795" fill="white"/>
</clipPath>
<clipPath id="clip1_21_433">
<rect width="655.217" height="319.801" fill="white" transform="translate(7.00023 95.2832)"/>
</clipPath>
</defs>
</svg>
